<?xml version="1.0" encoding="UTF-8"?>
<svg version="1.1" viewBox="0 0 2048 614" width="400" height="120" xmlns="http://www.w3.org/2000/svg">
<path transform="translate(441,95)" d="m0 0h862l8 2 9 6 6 7 4 7 1 4v271l-2 10-6 8-7 7-8 4-7 1h-860l-8-2-9-7-7-7-4-10-1-6v-266l4-11 9-10 9-6z" fill="#CB335E"/>
<path transform="translate(141,38)" d="m0 0h1839l9 2 13 8 10 10 6 10 2 7v358l-2 11-7 11-9 8-12 6-5 1-19 1h-1637l-1-1v-22l182-1h732l259 1h339l138-1 8-2 5-4 4-10 1-266v-85l-3-7-4-5-6-3-32-1h-1740l-78 1-6 3-6 7-2 4-1 68-1 1h-22v-71l3-10 7-11 8-8 13-8 3-1z" fill="#070103"/>
<path transform="translate(367,278)" d="m0 0 5 1 10 8-1 5-8 11-10 11-7 8-12 13-7 8-12 14-8 8-7 8-12 13-8 10 1 18-2 9-6 11-7 7-14 7-78 26-24 6h-13l-9-4-11-8-13-12-12-11-14-14-2-3 1-6 5-5 3-2h6l10 6 16 15 8 7 10 9 8 5 9-1 49-16 43-14 10-6 3-5v-7l-4-8-6-4-4-1-21 6-47 16-26 8-10 2-5-4-4-7 1-6 15-9 1-3-4-10-8-11-9-8-13-6-8-2h-16l-13 4-11 7-8 8-8 16-2 8-1 164-2 6-4 5-2 1h-8l-2-3v-3l-4-1-1-3-1-35v-88l1-46 4-15 7-14 7-9 6-7 12-9 13-6 14-4 6-1h13l15 4 12 5 12 8 9 8 9 13 8 19 12-3 41-14 14-4h11l14 5 4-1 7-7 9-11 7-7 7-8 11-12 18-20 7-8 11-12 9-10z" fill="#CB345F"/>
<path transform="translate(95,190)" d="m0 0h25l12 3 14 7 11 9 9 10 7 12 4 12 2 14-1 17-5 16-6 11-9 11-11 9-12 6-14 4-8 1h-13l-16-3-12-5-10-7-6-5-8-10-7-12-5-14-1-6v-17l3-14 8-16 10-13 11-9 15-8zm5 22-13 4-11 7-8 8-6 10-3 10v21l3 10 7 10 8 8 12 7 13 3h10l12-3 10-5 10-9 6-8 4-8 2-11v-11l-3-12-7-12-9-9-12-7-11-3z" fill="#CB335E"/>
<path transform="translate(1126,214)" d="m0 0h21l14 4 11 6 10 9 7 10 5 15 1 5v11l-2 5-18 1h-82l6 16 6 9 8 7 11 5 10 2 13-1 16-6 8-6 6-5 5 1 4 3-1 8-11 9-14 7-11 3-7 1h-11l-16-4-12-6-10-9-7-11-5-11-2-10v-19l3-12 8-15 6-7 12-9 13-5z" fill="#FDFDFD"/>
<path transform="translate(585,214)" d="m0 0h19l16 5 10 6 9 8 8 13 4 10 1 5v17l-2 1-14 1h-86l7 18 7 9 7 6 11 5 4 1h14l18-6 8-5 8-7 6 1 3 3v6l-5 5-11 8-12 5-11 3-14 1-18-4-12-6-9-8-7-10-5-10-4-15v-13l3-14 7-14 8-10 12-9 15-5z" fill="#FDFDFD"/>
<path transform="translate(726,227)" d="m0 0h8l14 3 10 6 8 10 4 8 2 8 1 14-2 13-6 12-9 10-12 6-7 2h-17l-11-4-8-6-9-10-5-13-1-9v-9l3-14 5-10 9-9 12-6z" fill="#CB335E"/>
<path transform="translate(1620,170)" d="m0 0 18 1v89l8-7 23-23 8-7 8-6 2-1 11-1h12l-2 4-22 22-8 7-10 10-11 9-6 6h-2l5 5 10 9 11 9 12 11 11 9 10 9 8 7 2 3-1 1h-11l-14-1-9-7-11-10-11-9-14-13-10-8 1 6v41h-18l-1-53v-110z" fill="#0A0204"/>
<path transform="translate(1523,214)" d="m0 0h15l14 3 8 4 10 9 6 8 4 9 2 16v72h-18l-1-1-1-79-4-9-6-7-8-4-9-2h-8l-10 2-8 4-9 9-5 9-1 5-1 73h-18l-1-1v-118h18l1 10 1 2 14-9 10-4z" fill="#090204"/>
<path transform="translate(1899,214)" d="m0 0h14l16 4 10 6 7 7 8 14 3 11v79h-19l-1-1-1-81-4-8-5-5-8-5-9-2h-9l-12 3-9 6-6 7-5 10-1 5-1 71h-18v-120l16 1 1 3v9l8-4 10-6 9-3z" fill="#090204"/>
<path transform="translate(720,214)" d="m0 0h18l16 5 10 6 7 5 1-2v-9l1-3 3-1h11l1 1v114h-14l-2-1v-12l-6 3-13 8-11 3-6 1h-15l-15-4-10-5-10-9-6-8-6-12-3-12v-17l3-12 8-16 9-10 10-7 10-4zm6 13-11 2-12 6-9 9-5 10-3 14v9l2 12 4 10 11 12 8 5 9 3h17l12-4 9-6 7-8 6-12 2-13-1-14-3-10-6-10-5-6-10-6-14-3z" fill="#FDFDFD"/>
<path transform="translate(946,171)" d="m0 0h16l1 1 1 56 10-7 12-5 8-2h16l16 5 9 6 7 7 7 14 2 10 1 41v24l-1 8-2 2h-10l-3-2-1-73-2-10-6-9-7-5-10-3h-17l-10 3-9 7-7 9-3 8-1 9v65l-1 1h-12l-3-2-1-8z" fill="#FDFDFD"/>
<path transform="translate(470,182)" d="m0 0h10v33l22-1h12l3 1 1 2v11l-2 2h-36l1 73 2 10 7 4 7 1 10-2 6-2h5l4 5v7l-8 4-10 3h-15l-11-4-7-6-4-8-3-12-1-12v-18l1-43-7 1h-11l-5-2-1-2v-10l3-2h21v-31z" fill="#FDFDFD"/>
<path transform="translate(872,213)" d="m0 0h9l16 4 10 4 9 7 2 2v6l-5 5-7-1-8-6-14-5h-18l-11 4-9 6-7 8-5 12-1 6v17l4 13 6 9 10 8 12 5 5 1h11l14-4 15-9 6 2 3 4-1 7-13 8-12 5-9 2h-15l-15-4-10-5-9-7-8-9-7-14-3-12v-16l3-14 8-15 9-10 12-8 16-5z" fill="#FDFDFD"/>
<path transform="translate(1360,170)" d="m0 0h9l9 1v164h-18l-1-1v-36z" fill="#030001"/>
<path transform="translate(1269,213)" d="m0 0 10 1 16 5 2 4-3 9-1 1h-8l-11-4-10 1-12 6-8 9-5 13-1 5-1 66-5 2-9-1-2-4v-77l1-33h13l3 12 4-2 10-7 11-5z" fill="#FDFDFD"/>
<path transform="translate(591,226)" d="m0 0 13 1 10 3 9 6 8 9 6 13 1 7-39 1h-30l-18-1-1-3 6-15 7-9 5-4 14-7z" fill="#CB335E"/>
<path transform="translate(1127,227)" d="m0 0h17l12 3 10 6 7 7 5 10 2 6v6h-84l-2-1 1-7 5-11 7-9 11-7z" fill="#CB335E"/>
<path transform="translate(1791,216)" d="m0 0h19v119h-19z" fill="#090204"/>
<path transform="translate(1417,216)" d="m0 0h13l6 1v118h-19z" fill="#090204"/>
<path transform="translate(163,495)" d="m0 0h16l1 2v38l-3 3-3 1h-10l-5-3-1-3v-35l1-2z" fill="#CB335E"/>
<path transform="translate(1799,172)" d="m0 0 6 1 7 6 3 6-1 6-7 7-3 1h-7l-6-4-4-5v-7l6-8z" fill="#0C0305"/>
<path transform="translate(1422,173)" d="m0 0h7l6 3 4 4 1 7-3 7-5 4-2 1-9-1-6-4-2-4v-8l4-6z" fill="#0D0306"/>
<path transform="translate(1739,313)" d="m0 0h7l8 4 1 3v8l-3 6-4 2h-8l-5-2-4-6-1-7 3-5z" fill="#120408"/>
</svg>
